<svg xmlns="http://www.w3.org/2000/svg" xmlns:xlink="http://www.w3.org/1999/xlink" viewBox="0 0 497.5 489.79"><defs><style>.cls-1{fill:url(#linear-gradient);}.cls-2{fill:#39b54a;opacity:0.8;}</style><linearGradient id="linear-gradient" x1="455.09" y1="44.37" x2="20.24" y2="474.13" gradientUnits="userSpaceOnUse"><stop offset="0" stop-color="#29abe2"/><stop offset="1" stop-color="#2e3192"/></linearGradient></defs><g id="Layer_2" data-name="Layer 2"><g id="Layer_1-2" data-name="Layer 1"><g id="Globe"><path class="cls-1" d="M490.25,248.29a243.66,243.66,0,0,1-1.91,30.5,240.9,240.9,0,0,1-56.27,126.73A241.62,241.62,0,0,1,27.76,345.86a239.89,239.89,0,0,1-17.6-59.95c-.31-1.9-.58-3.8-.83-5.71A245.41,245.41,0,0,1,9.8,213q1.25-8.39,3-16.59A241.74,241.74,0,0,1,202.54,11.2q4.11-.79,8.26-1.45a243.54,243.54,0,0,1,37.95-3A240.4,240.4,0,0,1,394.81,56q3.18,2.41,6.28,4.93a241.92,241.92,0,0,1,77.08,111.78,238.89,238.89,0,0,1,7.94,30.88A242.57,242.57,0,0,1,490.25,248.29Z"/><path class="cls-2" d="M399.19,58.32v65.85a15.21,15.21,0,0,1-4.45,10.75l-67,67A15.21,15.21,0,0,1,317,206.38H297.42a15.21,15.21,0,0,1-10.75-4.45l-50.79-50.79a15.17,15.17,0,0,0-10.75-4.46H181.28a15.21,15.21,0,0,1-15.21-15.2V45.93a15.22,15.22,0,0,1,4.46-10.75L197.81,7.9a15.12,15.12,0,0,1,8.12-4.23l3.74-.62a250.52,250.52,0,0,1,39.08-3A247.58,247.58,0,0,1,392.9,46,15.09,15.09,0,0,1,399.19,58.32Z"/><path class="cls-2" d="M497.5,248.75q0,8.72-.59,17.28a15.21,15.21,0,0,1-15.18,14.13H457.68a15.19,15.19,0,0,0-10.75,4.45l-19,18.95a15.21,15.21,0,0,0-4.45,10.75v20.83a15.23,15.23,0,0,1-4.45,10.76l-22.68,22.67A15.21,15.21,0,0,1,385.64,373H354a15.19,15.19,0,0,1-15.2-15.2v-74A15.22,15.22,0,0,0,334.34,273L322.2,260.88a15.2,15.2,0,0,1,0-21.5l27.88-27.89a15.25,15.25,0,0,1,10.25-4.44l119.48-4a15.21,15.21,0,0,1,15.59,13.2A252,252,0,0,1,497.5,248.75Z"/><path class="cls-2" d="M387.61,431v16a15.28,15.28,0,0,1-7.22,12.94Q377,462,373.44,464a15.17,15.17,0,0,1-18.31-2.45l-5.84-5.85A15.22,15.22,0,0,1,344.83,445V431A15.21,15.21,0,0,1,360,415.76H372.4A15.21,15.21,0,0,1,387.61,431Z"/><path class="cls-2" d="M137.22,328.3v29A15.21,15.21,0,0,1,122,372.54H94.35a15.22,15.22,0,0,1-10.76-4.46l-77-77a15.09,15.09,0,0,1-4.32-8.67c0-.26-.07-.51-.1-.77a251.65,251.65,0,0,1,.49-69.18c.21-1.47.44-2.93.68-4.39a15.19,15.19,0,0,1,15-12.69H34.55a15.21,15.21,0,0,1,15.21,15.2v17.7A15.21,15.21,0,0,0,54.21,239l78.56,78.55A15.21,15.21,0,0,1,137.22,328.3Z"/></g></g></g></svg>