<svg xmlns="http://www.w3.org/2000/svg" xmlns:xlink="http://www.w3.org/1999/xlink" viewBox="0 0 1224 304"><defs><style>.cls-1{fill:#fff;}.cls-2{fill:url(#linear-gradient);}.cls-3{fill:#39b54a;opacity:0.8;}</style><linearGradient id="linear-gradient" x1="1131.2" y1="75.17" x2="964.6" y2="239.82" gradientUnits="userSpaceOnUse"><stop offset="0" stop-color="#29abe2"/><stop offset="1" stop-color="#2e3192"/></linearGradient></defs><g id="Layer_2" data-name="Layer 2"><g id="Layer_1-2" data-name="Layer 1"><rect class="cls-1" width="1224" height="304" rx="30.5"/><path d="M165.64,98v19.67H133.28V219.43H108.92V117.64H76.56V98Z"/><path d="M280.14,178.53H209.67q.86,10.44,7.3,16.36a22.51,22.51,0,0,0,15.84,5.92q13.58,0,19.31-11.66H278.4a44,44,0,0,1-16,22.88q-11.83,9-29.06,9a50.28,50.28,0,0,1-25-6.18,43.41,43.41,0,0,1-17.23-17.48Q185,186,185,171.23q0-15,6.09-26.28a42.48,42.48,0,0,1,17-17.4q11-6.09,25.23-6.09A50.73,50.73,0,0,1,258,127.38a41.6,41.6,0,0,1,16.88,16.79,50.83,50.83,0,0,1,6,25A57.87,57.87,0,0,1,280.14,178.53ZM255.6,162.18q-.18-9.39-6.78-15.05a24.07,24.07,0,0,0-16.19-5.66A22.11,22.11,0,0,0,217.41,147q-6.18,5.49-7.57,15.23Z"/><path d="M343,126a34.14,34.14,0,0,1,17.32-4.35v25.58h-6.44q-11.49,0-17.31,5.39t-5.83,18.79v48H306.41V123h24.36v15A34.28,34.28,0,0,1,343,126Z"/><path d="M421.16,126a34.11,34.11,0,0,1,17.31-4.35v25.58H432q-11.47,0-17.31,5.39t-5.83,18.79v48H384.53V123h24.36v15A34.22,34.22,0,0,1,421.16,126Z"/><path d="M462.22,145a42.7,42.7,0,0,1,15.84-17.4,42.11,42.11,0,0,1,22.35-6.09,39.25,39.25,0,0,1,18.88,4.35,38.29,38.29,0,0,1,13,11V123h24.53v96.4H532.26v-14.1a36.18,36.18,0,0,1-13,11.22,39.63,39.63,0,0,1-19,4.44,41,41,0,0,1-22.18-6.26,43.88,43.88,0,0,1-15.84-17.66q-5.84-11.4-5.83-26.19Q456.39,156.27,462.22,145ZM528.78,156a24.64,24.64,0,0,0-9.4-9.74,25.13,25.13,0,0,0-12.7-3.4,24.48,24.48,0,0,0-21.84,13,30.22,30.22,0,0,0-3.57,15,31.21,31.21,0,0,0,3.57,15.22,25.69,25.69,0,0,0,9.4,10,23.84,23.84,0,0,0,12.44,3.48,25.12,25.12,0,0,0,12.7-3.39,24.67,24.67,0,0,0,9.4-9.75,31.23,31.23,0,0,0,3.48-15.22A31.27,31.27,0,0,0,528.78,156Z"/><path d="M612.82,90.67V219.43H588.46V90.67Z"/><path d="M646.31,107.46a14.29,14.29,0,0,1,0-20.36,16,16,0,0,1,21.4,0,14.27,14.27,0,0,1,0,20.36,16,16,0,0,1-21.4,0ZM669,123v96.4H644.66V123Z"/><path d="M700.69,145a43.51,43.51,0,0,1,16.88-17.4,48.78,48.78,0,0,1,24.7-6.18q17.93,0,29.67,9t15.75,25.15H761.41a19.17,19.17,0,0,0-7-9.83,20.47,20.47,0,0,0-12.27-3.57q-10.44,0-16.53,7.57t-6.09,21.49q0,13.74,6.09,21.31t16.53,7.57q14.79,0,19.31-13.22h26.28q-4,15.66-15.84,24.88T742.27,221a48.78,48.78,0,0,1-24.7-6.18,43.38,43.38,0,0,1-16.88-17.4q-6.09-11.22-6.09-26.18T700.69,145Z"/><path d="M829.1,216.73a37.45,37.45,0,0,1-14.88-11.57,29.4,29.4,0,0,1-6-16.19h24.53a13.36,13.36,0,0,0,5.48,9.23,19.09,19.09,0,0,0,11.92,3.65q7,0,10.88-2.78a8.44,8.44,0,0,0,3.91-7.14q0-4.69-4.78-7a90.33,90.33,0,0,0-15.23-5.14,128.5,128.5,0,0,1-17.66-5.39,30.65,30.65,0,0,1-11.83-8.53q-5-5.73-5-15.48a25,25,0,0,1,4.61-14.62,30.9,30.9,0,0,1,13.22-10.44,49.65,49.65,0,0,1,20.28-3.83q17.22,0,27.49,8.62t11.31,23.22H864.07a12.63,12.63,0,0,0-4.78-9.13q-4.27-3.39-11.4-3.39-6.61,0-10.18,2.43a7.78,7.78,0,0,0-3.57,6.79q0,4.88,4.88,7.39t15.13,5.14a129.32,129.32,0,0,1,17.23,5.39,30.5,30.5,0,0,1,11.74,8.61q5,5.83,5.14,15.4a25.58,25.58,0,0,1-4.61,15,30.39,30.39,0,0,1-13.23,10.35,50.17,50.17,0,0,1-20.1,3.74A50.84,50.84,0,0,1,829.1,216.73Z"/><g id="Globe"><path class="cls-2" d="M1144.67,153.3a93.67,93.67,0,0,1-.73,11.68,92.54,92.54,0,0,1-183.21,2.73c-.11-.72-.22-1.45-.31-2.19a93.67,93.67,0,0,1,.18-25.73q.46-3.21,1.16-6.35a91.53,91.53,0,0,1,6.39-19,92.65,92.65,0,0,1,66.29-52c1-.21,2.1-.39,3.17-.56a92.65,92.65,0,0,1,70.49,17.7c.82.62,1.62,1.25,2.41,1.89A92.65,92.65,0,0,1,1140,124.32a91.56,91.56,0,0,1,3,11.83A93.19,93.19,0,0,1,1144.67,153.3Z"/><path class="cls-3" d="M1109.78,80.52v25.22a5.79,5.79,0,0,1-1.71,4.12l-25.66,25.68a5.85,5.85,0,0,1-4.12,1.7h-7.5a5.84,5.84,0,0,1-4.12-1.7l-19.46-19.46a5.83,5.83,0,0,0-4.12-1.71h-16.8a5.83,5.83,0,0,1-5.82-5.82V75.77a5.84,5.84,0,0,1,1.7-4.12l10.46-10.45a5.73,5.73,0,0,1,3.11-1.62l1.43-.24a96,96,0,0,1,15-1.17,94.85,94.85,0,0,1,55.23,17.63A5.79,5.79,0,0,1,1109.78,80.52Z"/><path class="cls-3" d="M1147.44,153.48q0,3.33-.22,6.62a5.82,5.82,0,0,1-5.82,5.41h-9.21a5.79,5.79,0,0,0-4.12,1.71l-7.26,7.25a5.86,5.86,0,0,0-1.71,4.12v8a5.81,5.81,0,0,1-1.7,4.11l-8.69,8.69a5.85,5.85,0,0,1-4.12,1.71h-12.12a5.83,5.83,0,0,1-5.83-5.83V166.9a5.82,5.82,0,0,0-1.7-4.12l-4.66-4.66a5.82,5.82,0,0,1,0-8.23L1091,139.2a5.82,5.82,0,0,1,3.92-1.7l45.78-1.52a5.84,5.84,0,0,1,6,5.06A96.28,96.28,0,0,1,1147.44,153.48Z"/><path class="cls-3" d="M1105.34,223.29v6.1a5.84,5.84,0,0,1-2.76,5c-.88.55-1.77,1.09-2.67,1.61a5.8,5.8,0,0,1-7-.94l-2.24-2.24a5.82,5.82,0,0,1-1.7-4.12v-5.37a5.82,5.82,0,0,1,5.82-5.83h4.74A5.82,5.82,0,0,1,1105.34,223.29Z"/><path class="cls-3" d="M1009.41,184v11.13a5.82,5.82,0,0,1-5.82,5.82H993a5.79,5.79,0,0,1-4.12-1.71l-29.51-29.51a5.77,5.77,0,0,1-1.66-3.32,2.54,2.54,0,0,0,0-.29,96.73,96.73,0,0,1,.19-26.51c.08-.56.17-1.12.26-1.68a5.83,5.83,0,0,1,5.75-4.86h6.22a5.82,5.82,0,0,1,5.83,5.82v6.78a5.82,5.82,0,0,0,1.7,4.12l30.1,30.09A5.85,5.85,0,0,1,1009.41,184Z"/></g></g></g></svg>